<?xml version="1.0" encoding="UTF-8" standalone="no"?>
<!-- Created with Inkscape (http://www.inkscape.org/) -->

<svg
   width="77.392738mm"
   height="6.8950787mm"
   viewBox="0 0 77.392738 6.8950787"
   version="1.1"
   id="svg1"
   xmlns="http://www.w3.org/2000/svg"
   xmlns:svg="http://www.w3.org/2000/svg">
  <defs
     id="defs1" />
  <g
     id="layer1"
     transform="translate(-11.039279,-6.3816954)">
    <path
       d="m 15.494865,13.123325 h -4.434416 c -0.01411,0 -0.02117,-0.0212 -0.02117,-0.0635 0,-0.0423 0.0071,-0.0635 0.02117,-0.0635 0.261056,0 0.455083,-0.0176 0.582083,-0.0529 0.127,-0.0353 0.211667,-0.10584 0.254,-0.21167 0.0494,-0.10583 0.07408,-0.26106 0.07408,-0.46567 V 7.3660059 c 0,-0.2046 -0.02468,-0.35631 -0.07408,-0.45508 -0.04233,-0.10584 -0.127,-0.1764 -0.254,-0.21167 -0.127,-0.0423 -0.321027,-0.0635 -0.582083,-0.0635 -0.01411,0 -0.02117,-0.0212 -0.02117,-0.0635 0,-0.0423 0.0071,-0.0635 0.02117,-0.0635 h 4.2545 c 0.0635,0 0.09525,0.0318 0.09525,0.0953 l 0.02117,1.30175 c 0,0.0212 -0.02117,0.0353 -0.0635,0.0423 -0.03527,0 -0.05292,-0.0106 -0.05292,-0.0318 -0.02117,-0.381 -0.137584,-0.67381 -0.34925,-0.87841 -0.204603,-0.20461 -0.472731,-0.30692 -0.804334,-0.30692 h -0.645583 c -0.239898,0 -0.423333,0.0177 -0.550333,0.0529 -0.119936,0.0353 -0.204603,0.10231 -0.254,0.20108 -0.04233,0.0988 -0.0635,0.24342 -0.0635,0.43392 v 4.8048291 c 0,0.18344 0.02117,0.32456 0.0635,0.42333 0.0494,0.0988 0.130519,0.16582 0.243416,0.20109 0.119936,0.0353 0.296334,0.0529 0.529167,0.0529 h 0.846667 c 0.338666,0 0.620897,-0.11993 0.846666,-0.35983 0.232834,-0.24694 0.384519,-0.57856 0.455084,-0.99483 0,-0.0212 0.02117,-0.0282 0.0635,-0.0212 0.04233,0.007 0.0635,0.0212 0.0635,0.0423 -0.02823,0.18344 -0.05292,0.40569 -0.07408,0.66675 -0.0141,0.26107 -0.02117,0.50448 -0.02117,0.73025 0,0.10584 -0.05644,0.15875 -0.169334,0.15875 z m -0.592666,-2.46591 c 0,-0.31044 -0.0776,-0.53269 -0.232834,-0.6667495 -0.148166,-0.13407 -0.398647,-0.20109 -0.751416,-0.20109 h -1.5875 v -0.22225 h 1.61925 c 0.338666,0 0.578564,-0.0564 0.719666,-0.16933 0.148167,-0.11994 0.22225,-0.31044 0.22225,-0.5715 0,-0.0141 0.02117,-0.0212 0.0635,-0.0212 0.04233,0 0.0635,0.007 0.0635,0.0212 0,0.21167 -0.0035,0.37748 -0.01058,0.49742 0,0.11289 0,0.23283 0,0.35983 0,0.16227 0.0035,0.3210195 0.01058,0.4762495 0.0071,0.15523 0.01058,0.32102 0.01058,0.49742 0,0.0141 -0.02117,0.0212 -0.0635,0.0212 -0.04233,0 -0.0635,-0.007 -0.0635,-0.0212 z m 5.758497,2.46591 c -0.01413,0 -0.02117,-0.0212 -0.02117,-0.0635 0,-0.0423 0.007,-0.0635 0.02117,-0.0635 0.254,0 0.416269,-0.0282 0.486833,-0.0847 0.0776,-0.0635 0.0635,-0.17286 -0.04233,-0.32809 L 17.697366,7.4082859 c -0.183462,-0.28223 -0.366898,-0.47977 -0.550334,-0.59266 -0.183462,-0.11994 -0.395128,-0.17992 -0.635,-0.17992 -0.01413,0 -0.02117,-0.0212 -0.02117,-0.0635 0,-0.0423 0.007,-0.0635 0.02117,-0.0635 0.127,0 0.261038,0.007 0.402167,0.0212 0.141102,0.007 0.275167,0.0106 0.402167,0.0106 0.289269,0 0.553852,-0.004 0.79375,-0.0106 0.239871,-0.0141 0.448019,-0.0212 0.624416,-0.0212 0.02117,0 0.03175,0.0212 0.03175,0.0635 0,0.0423 -0.01058,0.0635 -0.03175,0.0635 -0.254,0 -0.419814,0.0318 -0.497416,0.0953 -0.07057,0.0564 -0.05292,0.16581 0.05292,0.32808 l 3.429,5.1858391 c 0.183436,0.27516 0.370417,0.46918 0.560917,0.58208 0.197538,0.1129 0.440955,0.16933 0.73025,0.16933 0.0141,0 0.02117,0.0212 0.02117,0.0635 0,0.0423 -0.0071,0.0635 -0.02117,0.0635 -0.141129,0 -0.299879,-0.004 -0.47625,-0.0106 -0.169333,-0.007 -0.34925,-0.0106 -0.53975,-0.0106 -0.282231,0 -0.529167,0.004 -0.740833,0.0106 -0.211667,0.007 -0.409231,0.0106 -0.592667,0.0106 z m -4.191,0 c -0.02117,0 -0.03175,-0.0212 -0.03175,-0.0635 0,-0.0423 0.01058,-0.0635 0.03175,-0.0635 0.232833,0 0.472705,-0.0776 0.719667,-0.23283 0.246935,-0.16227 0.486833,-0.40569 0.719666,-0.73025 l 1.598084,-2.1907495 0.127,0.11642 -1.49225,2.0849095 c -0.211667,0.3034 -0.28575,0.53975 -0.22225,0.70909 0.0635,0.16227 0.264583,0.24341 0.60325,0.24341 0.02117,0 0.03175,0.0212 0.03175,0.0635 0,0.0423 -0.01058,0.0635 -0.03175,0.0635 -0.1905,0 -0.370417,-0.004 -0.53975,-0.0106 -0.169334,-0.007 -0.395129,-0.0106 -0.677334,-0.0106 -0.176397,0 -0.321045,0.004 -0.433916,0.0106 -0.105834,0.007 -0.239898,0.0106 -0.402167,0.0106 z m 3.33375,-3.3337495 -0.137583,-0.10583 1.42875,-2.0214196 c 0.239871,-0.3316 0.331602,-0.5856 0.275166,-0.762 -0.05646,-0.17639 -0.250481,-0.26458 -0.582083,-0.26458 -0.02117,0 -0.03175,-0.0212 -0.03175,-0.0635 0,-0.0423 0.01058,-0.0635 0.03175,-0.0635 0.183436,0 0.359833,0.007 0.529167,0.0212 0.176371,0.007 0.402166,0.0106 0.677333,0.0106 0.183436,0 0.328083,-0.004 0.433917,-0.0106 0.112871,-0.0141 0.246935,-0.0212 0.402166,-0.0212 0.02117,0 0.03175,0.0212 0.03175,0.0635 0,0.0423 -0.01058,0.0635 -0.03175,0.0635 -0.232833,0 -0.47625,0.0882 -0.73025,0.26458 -0.254,0.1764 -0.508,0.43744 -0.762,0.78317 z m 5.422291,2.4341695 c 0,0.21167 0.02823,0.37394 0.08467,0.48683 0.05646,0.10584 0.176398,0.17992 0.359833,0.22225 0.183462,0.0423 0.455084,0.0635 0.814917,0.0635 0.02117,0 0.03175,0.0212 0.03175,0.0635 0,0.0423 -0.01058,0.0635 -0.03175,0.0635 -0.225769,0 -0.472705,-0.004 -0.740833,-0.0106 -0.261038,-0.007 -0.546788,-0.0106 -0.85725,-0.0106 -0.232834,0 -0.458603,0.004 -0.677334,0.0106 -0.211666,0.007 -0.402166,0.0106 -0.5715,0.0106 -0.0141,0 -0.02117,-0.0212 -0.02117,-0.0635 0,-0.0423 0.0071,-0.0635 0.02117,-0.0635 0.261065,0 0.455084,-0.0176 0.582084,-0.0529 0.127,-0.0353 0.211666,-0.10584 0.254,-0.21167 0.04233,-0.10583 0.0635,-0.26106 0.0635,-0.46567 V 7.3660059 c 0,-0.2046 -0.02117,-0.35631 -0.0635,-0.45508 -0.04233,-0.10584 -0.127,-0.1764 -0.254,-0.21167 -0.127,-0.0423 -0.321019,-0.0635 -0.582084,-0.0635 -0.0141,0 -0.02117,-0.0212 -0.02117,-0.0635 0,-0.0423 0.0071,-0.0635 0.02117,-0.0635 0.169334,0 0.359834,0.007 0.5715,0.0212 0.211667,0.007 0.433917,0.0106 0.66675,0.0106 0.183463,0 0.405713,-0.0106 0.66675,-0.0318 0.268129,-0.0212 0.536231,-0.0318 0.804334,-0.0318 0.402166,0 0.762,0.06 1.0795,0.17992 0.324564,0.11993 0.582083,0.30691 0.772583,0.56091 0.1905,0.254 0.289295,0.58561 0.296333,0.99484 0,0.37393 -0.07054,0.6949796 -0.211666,0.9630796 -0.134038,0.2681 -0.3175,0.49035 -0.550334,0.66675 -0.225769,0.1693295 -0.47625,0.2963295 -0.751416,0.3809995 -0.275167,0.0847 -0.550334,0.127 -0.8255,0.127 -0.08467,0 -0.172853,-0.004 -0.264584,-0.0106 -0.08467,-0.007 -0.165788,-0.0212 -0.243416,-0.0423 -0.0282,-0.007 -0.03879,-0.0318 -0.03175,-0.0741 0.01413,-0.0494 0.03175,-0.0706 0.05292,-0.0635 0.0635,0.0141 0.127,0.0247 0.1905,0.0318 0.07056,0.007 0.134065,0.0106 0.1905,0.0106 0.289296,0 0.560917,-0.0635 0.814917,-0.1905 0.254,-0.1269995 0.458629,-0.3210195 0.613833,-0.5820795 0.155231,-0.2681 0.232834,-0.59973 0.232834,-0.9948296 0,-0.38807 -0.07054,-0.71261 -0.211667,-0.97367 -0.141102,-0.2681 -0.335121,-0.47273 -0.582083,-0.61383 -0.246936,-0.14111 -0.522103,-0.21167 -0.8255,-0.21167 -0.232834,0 -0.41275,0.0141 -0.53975,0.0423 -0.119936,0.0212 -0.204603,0.0847 -0.254,0.1905 -0.04937,0.10584 -0.07408,0.27869 -0.07408,0.51859 z m 5.503598,-2.6034995 0.15875,-0.22225 h 2.180167 l 0.07408,0.22225 z m 5.143474,3.3760795 c 0.02831,0 0.04233,0.0212 0.04233,0.0635 0,0.0423 -0.01402,0.0635 -0.04233,0.0635 -0.204523,0 -0.41275,-0.007 -0.624417,-0.0212 -0.21164,-0.0141 -0.416269,-0.0212 -0.613807,-0.0212 -0.218731,0 -0.409231,0.007 -0.5715,0.0212 -0.162295,0.0141 -0.342212,0.0212 -0.53975,0.0212 -0.02823,0 -0.04233,-0.0212 -0.04233,-0.0635 0,-0.0423 0.0141,-0.0635 0.04233,-0.0635 0.373936,0 0.606769,-0.0529 0.6985,-0.15875 0.0917,-0.11289 0.06702,-0.32102 -0.07408,-0.62441 l -2.3495,-4.9635891 0.264583,-0.32808 -2.053166,4.8577491 c -0.176398,0.4304 -0.186981,0.74083 -0.03175,0.93133 0.155204,0.1905 0.462121,0.28575 0.92075,0.28575 0.03527,0 0.05292,0.0212 0.05292,0.0635 0,0.0423 -0.01765,0.0635 -0.05292,0.0635 -0.211667,0 -0.405712,-0.007 -0.582084,-0.0212 -0.176397,-0.0141 -0.398647,-0.0212 -0.66675,-0.0212 -0.254,0 -0.458628,0.007 -0.613833,0.0212 -0.148167,0.0141 -0.331629,0.0212 -0.550333,0.0212 -0.02823,0 -0.04233,-0.0212 -0.04233,-0.0635 0,-0.0423 0.0141,-0.0635 0.04233,-0.0635 0.1905,0 0.356288,-0.0353 0.497416,-0.10583 0.141103,-0.0776 0.271622,-0.20815 0.391584,-0.39158 0.127,-0.1905 0.264583,-0.46215 0.41275,-0.81492 l 2.233083,-5.2704991 c 0.0141,-0.0212 0.03879,-0.0318 0.07408,-0.0318 0.03527,0 0.05644,0.0106 0.0635,0.0318 l 2.497667,5.2599191 c 0.162269,0.34573 0.306917,0.61735 0.433917,0.81491 0.126973,0.1905 0.250533,0.32457 0.37039,0.40217 0.127,0.0706 0.264583,0.10583 0.41275,0.10583 z m 1.303337,-1.02658 V 6.7521659 l 0.243417,0.0212 v 5.1964191 c 0,0.3669 0.0635,0.63148 0.1905,0.79375 0.127,0.15523 0.338667,0.23283 0.635,0.23283 0.02117,0 0.03175,0.0212 0.03175,0.0635 0,0.0423 -0.01058,0.0635 -0.03175,0.0635 -0.141023,0 -0.28575,-0.004 -0.433917,-0.0106 -0.148166,-0.007 -0.31406,-0.0106 -0.497416,-0.0106 -0.176478,0 -0.345811,0.004 -0.508,0.0106 -0.16219,0.007 -0.3175,0.0106 -0.465667,0.0106 -0.01402,0 -0.02117,-0.0212 -0.02117,-0.0635 0,-0.0423 0.0071,-0.0635 0.02117,-0.0635 0.310356,0 0.525727,-0.0776 0.645583,-0.23283 0.127,-0.16227 0.1905,-0.42685 0.1905,-0.79375 z m 5.334,1.28058 c 0,0.0141 -0.01773,0.0212 -0.05292,0.0212 -0.03519,0.007 -0.06006,0.007 -0.07408,0 L 37.514813,7.3766059 c -0.239977,-0.28927 -0.455083,-0.48331 -0.645583,-0.58208 -0.183357,-0.10583 -0.359834,-0.15875 -0.529167,-0.15875 -0.02117,0 -0.03175,-0.0212 -0.03175,-0.0635 0,-0.0423 0.01058,-0.0635 0.03175,-0.0635 0.127,0 0.254,0.004 0.381,0.0106 0.134144,0.007 0.254,0.0106 0.359833,0.0106 0.127,0 0.246856,-0.004 0.359834,-0.0106 0.112977,-0.007 0.197643,-0.0106 0.254,-0.0106 0.09181,0 0.15531,0.0423 0.1905,0.127 0.03519,0.0776 0.137583,0.21873 0.306916,0.42333 l 4.233333,5.1964191 z m 0,-5.5774091 v 5.5774091 l -0.243417,-0.32808 V 7.6729159 c 0,-0.3669 -0.0635,-0.63148 -0.1905,-0.79375 -0.119856,-0.16227 -0.324643,-0.24342 -0.613833,-0.24342 -0.01402,0 -0.02117,-0.0212 -0.02117,-0.0635 0,-0.0423 0.0071,-0.0635 0.02117,-0.0635 0.141023,0 0.28575,0.007 0.433917,0.0212 0.15531,0.007 0.320939,0.0106 0.497416,0.0106 0.169334,0 0.335228,-0.004 0.497417,-0.0106 0.169333,-0.0141 0.324644,-0.0212 0.465667,-0.0212 0.02117,0 0.03175,0.0212 0.03175,0.0635 0,0.0423 -0.01058,0.0635 -0.03175,0.0635 -0.303477,0 -0.522023,0.0812 -0.656167,0.24342 -0.127,0.16227 -0.1905,0.42685 -0.1905,0.79375 z m 2.620169,0.0741 c 0,0.28927 0.07038,0.53975 0.211667,0.75142 0.148166,0.2046 0.334962,0.3845196 0.560916,0.5397496 0.22569,0.15523 0.465667,0.31043 0.719667,0.46566 0.260879,0.14817 0.511439,0.30692 0.751417,0.47625 0.246856,0.1693395 0.447939,0.3704195 0.60325,0.6032495 0.162189,0.23284 0.243416,0.51859 0.243416,0.85725 0,0.33867 -0.08467,0.64559 -0.254,0.92075 -0.169333,0.26811 -0.416454,0.48332 -0.740833,0.64559 -0.3175,0.16227 -0.712788,0.24341 -1.185333,0.24341 -0.169334,0 -0.338667,-0.0141 -0.508,-0.0423 -0.162455,-0.0212 -0.328084,-0.06 -0.497417,-0.11642 -0.162454,-0.0564 -0.324644,-0.127 -0.486833,-0.21166 -0.03545,-0.0212 -0.06006,-0.0459 -0.07408,-0.0741 -0.0071,-0.0353 -0.01429,-0.0776 -0.02117,-0.127 l -0.137584,-1.43933 c -0.0071,-0.0353 0.0069,-0.0529 0.04233,-0.0529 0.04233,-0.007 0.06694,0.004 0.07408,0.0318 0.04921,0.21167 0.119856,0.42686 0.211667,0.64559 0.09154,0.21873 0.211666,0.41981 0.359833,0.60325 0.148167,0.18343 0.328083,0.3316 0.53975,0.4445 0.211667,0.11289 0.458523,0.16933 0.740833,0.16933 0.204523,0 0.402167,-0.0388 0.592667,-0.11642 0.197379,-0.0776 0.356129,-0.2046 0.47625,-0.381 0.127,-0.17639 0.1905,-0.41627 0.1905,-0.71966 0,-0.34573 -0.07779,-0.63148 -0.232833,-0.85725 -0.148167,-0.23284 -0.338667,-0.43392 -0.5715,-0.60325 -0.232834,-0.16934 -0.479955,-0.32809 -0.740834,-0.4762495 -0.247121,-0.15523 -0.486833,-0.31398 -0.719666,-0.47625 -0.225955,-0.16227 -0.41275,-0.35277 -0.560917,-0.5715 -0.141288,-0.2257696 -0.211667,-0.5044796 -0.211667,-0.8360896 0,-0.37393 0.09525,-0.68085 0.28575,-0.92075 0.1905,-0.24693 0.437356,-0.43039 0.740834,-0.55033 0.303212,-0.11994 0.617272,-0.17992 0.941916,-0.17992 0.197379,0 0.402167,0.0212 0.613834,0.0635 0.211666,0.0353 0.419629,0.0988 0.624416,0.1905 0.05636,0.0212 0.09525,0.0494 0.116417,0.0847 0.02805,0.0282 0.04233,0.06 0.04233,0.0952 l 0.07408,1.2065 c 0,0.0282 -0.01773,0.0459 -0.05292,0.0529 -0.03545,0 -0.06006,-0.0141 -0.07408,-0.0423 -0.01429,-0.1411 -0.05292,-0.29633 -0.116417,-0.46566 -0.0635,-0.1764 -0.155311,-0.34219 -0.275167,-0.49742 -0.120121,-0.15523 -0.271727,-0.28223 -0.455083,-0.381 -0.183621,-0.0988 -0.405871,-0.14817 -0.66675,-0.14817 -0.275167,0 -0.501121,0.06 -0.677333,0.17992 -0.169334,0.1129 -0.296334,0.26106 -0.381,0.4445 -0.07779,0.1764 -0.116417,0.3669 -0.116417,0.5715 z m 5.770033,4.5190791 c 0,0.20461 0.02117,0.35984 0.0635,0.46567 0.04233,0.10583 0.127,0.1764 0.254,0.21167 0.134144,0.0353 0.328083,0.0529 0.582083,0.0529 0.02117,0 0.03175,0.0212 0.03175,0.0635 0,0.0423 -0.01058,0.0635 -0.03175,0.0635 -0.169333,0 -0.359833,-0.004 -0.5715,-0.0106 -0.204522,-0.007 -0.433916,-0.0106 -0.687916,-0.0106 -0.232834,0 -0.458523,0.004 -0.677334,0.0106 -0.211666,0.007 -0.402166,0.0106 -0.5715,0.0106 -0.02117,0 -0.03175,-0.0212 -0.03175,-0.0635 0,-0.0423 0.01058,-0.0635 0.03175,-0.0635 0.254,0 0.44794,-0.0176 0.582084,-0.0529 0.134144,-0.0353 0.22225,-0.10584 0.264583,-0.21167 0.04233,-0.10583 0.0635,-0.26106 0.0635,-0.46567 V 7.3660159 c 0,-0.2046 -0.02117,-0.35631 -0.0635,-0.45508 -0.04233,-0.10584 -0.130439,-0.1764 -0.264583,-0.21167 -0.134144,-0.0423 -0.328084,-0.0635 -0.582084,-0.0635 -0.02117,0 -0.03175,-0.0212 -0.03175,-0.0635 0,-0.0423 0.01058,-0.0635 0.03175,-0.0635 0.169334,0 0.359834,0.007 0.5715,0.0212 0.218811,0.007 0.4445,0.0106 0.677334,0.0106 0.254,0 0.486833,-0.004 0.6985,-0.0106 0.211666,-0.0141 0.398727,-0.0212 0.560916,-0.0212 0.02117,0 0.03175,0.0212 0.03175,0.0635 0,0.0423 -0.01058,0.0635 -0.03175,0.0635 -0.254,0 -0.447939,0.0212 -0.582083,0.0635 -0.127,0.0423 -0.211667,0.11642 -0.254,0.22225 -0.04233,0.10583 -0.0635,0.26106 -0.0635,0.46567 z m 8.488095,-5.7573291 c 0.0212,0 0.0318,0.0212 0.0318,0.0635 0,0.0423 -0.0106,0.0635 -0.0318,0.0635 -0.22569,0 -0.43021,0.06 -0.61383,0.17992 -0.17621,0.11993 -0.32808,0.33866 -0.45508,0.65616 l -2.25425,5.6409191 c -0.007,0.0282 -0.0458,0.0423 -0.11642,0.0423 -0.0635,0 -0.10213,-0.0141 -0.11642,-0.0423 L 53.197196,7.3871859 c -0.119856,-0.26811 -0.246856,-0.45861 -0.381,-0.5715 -0.127,-0.11994 -0.299773,-0.17992 -0.518583,-0.17992 -0.02117,0 -0.03175,-0.0212 -0.03175,-0.0635 0,-0.0423 0.01058,-0.0635 0.03175,-0.0635 0.09895,0 0.194204,0.004 0.28575,0.0106 0.09181,0.007 0.18706,0.0141 0.28575,0.0212 0.09895,0 0.201083,0 0.306916,0 0.211667,0 0.398727,0 0.560917,0 0.162454,-0.007 0.306917,-0.0141 0.433917,-0.0212 0.127,-0.007 0.243416,-0.0106 0.34925,-0.0106 0.02117,0 0.03175,0.0212 0.03175,0.0635 0,0.0423 -0.01058,0.0635 -0.03175,0.0635 -0.275167,0 -0.469107,0.0529 -0.582084,0.15875 -0.105833,0.10583 -0.09869,0.28927 0.02117,0.55033 l 2.286004,5.0059191 -0.32809,0.48683 2.159,-5.4292491 c 0.10584,-0.26106 0.10584,-0.45508 0,-0.58208 -0.10583,-0.127 -0.35269,-0.1905 -0.74083,-0.1905 -0.0212,0 -0.0318,-0.0212 -0.0318,-0.0635 0,-0.0423 0.0106,-0.0635 0.0318,-0.0635 0.17648,0 0.34237,0.007 0.49742,0.0212 0.15531,0.007 0.35983,0.0106 0.61383,0.0106 0.20479,0 0.36698,-0.004 0.48683,-0.0106 0.127,-0.0141 0.27887,-0.0212 0.45509,-0.0212 z m 4.85802,6.6145791 h -4.43442 c -0.0143,0 -0.0212,-0.0212 -0.0212,-0.0635 0,-0.0423 0.007,-0.0635 0.0212,-0.0635 0.26088,0 0.45508,-0.0176 0.58208,-0.0529 0.127,-0.0353 0.21167,-0.10584 0.254,-0.21167 0.0492,-0.10583 0.0741,-0.26106 0.0741,-0.46567 V 7.3660259 c 0,-0.2046 -0.0249,-0.35631 -0.0741,-0.45508 -0.0423,-0.10584 -0.127,-0.1764 -0.254,-0.21167 -0.127,-0.0423 -0.3212,-0.0635 -0.58208,-0.0635 -0.0143,0 -0.0212,-0.0212 -0.0212,-0.0635 0,-0.0423 0.007,-0.0635 0.0212,-0.0635 h 4.2545 c 0.0635,0 0.0953,0.0318 0.0953,0.0953 l 0.0212,1.30175 c 0,0.0212 -0.0212,0.0353 -0.0635,0.0423 -0.0354,0 -0.0529,-0.0106 -0.0529,-0.0318 -0.0212,-0.381 -0.13758,-0.67381 -0.34925,-0.87841 -0.20479,-0.20461 -0.47281,-0.30692 -0.80433,-0.30692 h -0.64559 c -0.23997,0 -0.42333,0.0177 -0.55033,0.0529 -0.12012,0.0353 -0.20479,0.10231 -0.254,0.20108 -0.0423,0.0988 -0.0635,0.24342 -0.0635,0.43392 v 4.8048291 c 0,0.18344 0.0212,0.32456 0.0635,0.42333 0.0492,0.0988 0.13044,0.16582 0.24342,0.20109 0.11985,0.0353 0.29633,0.0529 0.52916,0.0529 h 0.84667 c 0.33867,0 0.62071,-0.11993 0.84667,-0.35983 0.23283,-0.24694 0.38444,-0.57856 0.45508,-0.99483 0,-0.0212 0.0212,-0.0282 0.0635,-0.0212 0.0423,0.007 0.0635,0.0212 0.0635,0.0423 -0.0283,0.18344 -0.0529,0.40569 -0.0741,0.66675 -0.0143,0.26107 -0.0212,0.50448 -0.0212,0.73025 0,0.10584 -0.0566,0.15875 -0.16933,0.15875 z m -0.59267,-2.46591 c 0,-0.31044 -0.0778,-0.53269 -0.23283,-0.6667495 -0.14817,-0.13407 -0.39873,-0.20109 -0.75142,-0.20109 h -1.5875 v -0.22225 h 1.61925 c 0.33867,0 0.57838,-0.0564 0.71967,-0.16933 0.14816,-0.11994 0.22225,-0.31044 0.22225,-0.5715 0,-0.0141 0.0212,-0.0212 0.0635,-0.0212 0.0423,0 0.0635,0.007 0.0635,0.0212 0,0.21167 -0.004,0.37748 -0.0106,0.49742 0,0.11289 0,0.23283 0,0.35983 0,0.16227 0.003,0.3210195 0.0106,0.4762495 0.007,0.15523 0.0106,0.32102 0.0106,0.49742 0,0.0141 -0.0212,0.0212 -0.0635,0.0212 -0.0423,0 -0.0635,-0.007 -0.0635,-0.0212 z m 8.99028,-0.9842495 -1.36525,3.4395795 c -0.007,0.0282 -0.0458,0.0423 -0.11642,0.0423 -0.0635,0 -0.10213,-0.0141 -0.11642,-0.0423 l -2.63525,-5.7255791 c -0.0775,-0.1905 -0.15874,-0.33867 -0.24341,-0.4445 -0.0847,-0.1129 -0.17992,-0.1905 -0.28575,-0.23284 -0.0987,-0.0494 -0.22225,-0.0741 -0.37042,-0.0741 -0.0212,0 -0.0317,-0.0212 -0.0317,-0.0635 0,-0.0423 0.0106,-0.0635 0.0317,-0.0635 0.099,0 0.19421,0.004 0.28575,0.0106 0.0918,0.007 0.18706,0.0141 0.28575,0.0212 0.099,0 0.20109,0 0.30692,0 0.19764,0 0.37041,0 0.51858,0 0.15531,-0.007 0.28946,-0.0141 0.40217,-0.0212 0.12012,-0.007 0.23283,-0.0106 0.33866,-0.0106 0.0212,0 0.0318,0.0212 0.0318,0.0635 0,0.0423 -0.0106,0.0635 -0.0318,0.0635 -0.27516,0 -0.46196,0.0494 -0.56091,0.14817 -0.0987,0.0917 -0.0847,0.27868 0.0423,0.56091 l 2.3495,5.0482491 -0.381,0.508 1.38642,-3.4607495 z m 4.77308,-3.1644196 c 0.0143,0 0.0212,0.0212 0.0212,0.0635 0,0.0423 -0.007,0.0635 -0.0212,0.0635 -0.23283,0 -0.43736,0.06 -0.61383,0.17992 -0.17622,0.11289 -0.33153,0.3316 -0.46567,0.65616 l -2.25425,5.6409191 c -0.007,0.0282 -0.0458,0.0423 -0.11642,0.0423 -0.0635,0 -0.10213,-0.0141 -0.11641,-0.0423 l -2.62467,-5.7255791 c -0.11985,-0.26811 -0.24685,-0.45861 -0.381,-0.5715 -0.127,-0.11994 -0.29263,-0.17992 -0.49742,-0.17992 -0.0212,0 -0.0318,-0.0212 -0.0318,-0.0635 0,-0.0423 0.0106,-0.0635 0.0318,-0.0635 0.0918,0 0.18363,0.004 0.27517,0.0106 0.0918,0.007 0.18362,0.0141 0.27517,0.0212 0.099,0 0.20108,0 0.30691,0 0.22596,0 0.40588,-0.004 0.53975,-0.0106 0.13415,-0.0141 0.254,-0.0212 0.35984,-0.0212 0.0212,0 0.0318,0.0212 0.0318,0.0635 0,0.0423 -0.0106,0.0635 -0.0318,0.0635 -0.21855,0 -0.33867,0.0423 -0.35984,0.127 -0.014,0.0776 0.0495,0.27165 0.1905,0.58208 l 2.36009,5.0482491 -0.381,0.508 2.19075,-5.4715791 c 0.10583,-0.2681 0.10583,-0.46567 0,-0.59267 -0.10584,-0.13406 -0.34555,-0.20108 -0.71967,-0.20108 -0.0212,0 -0.0318,-0.0212 -0.0318,-0.0635 0,-0.0423 0.0106,-0.0635 0.0318,-0.0635 0.16933,0 0.33179,0.007 0.48683,0.0212 0.15531,0.007 0.3564,0.0106 0.60325,0.0106 0.19765,0 0.35984,-0.004 0.48684,-0.0106 0.127,-0.0141 0.27887,-0.0212 0.45508,-0.0212 z m -4.87892,2.9315796 0.80434,-2.0319996 c 0.11297,-0.27516 0.14472,-0.47273 0.0952,-0.59266 -0.0492,-0.11994 -0.1905,-0.17992 -0.42334,-0.17992 -0.0212,0 -0.0318,-0.0212 -0.0318,-0.0635 0,-0.0423 0.0106,-0.0635 0.0318,-0.0635 0.0707,0 0.13415,0.004 0.1905,0.0106 0.0635,0.007 0.13071,0.0141 0.20109,0.0212 0.0778,0 0.17647,0 0.29633,0 0.19764,0 0.35639,-0.004 0.47625,-0.0106 0.127,-0.0141 0.27517,-0.0212 0.4445,-0.0212 0.0143,0 0.0212,0.0212 0.0212,0.0635 0,0.0423 -0.007,0.0635 -0.0212,0.0635 -0.21855,0 -0.41619,0.0564 -0.59267,0.16933 -0.17621,0.1129 -0.32808,0.33515 -0.45508,0.66675 l -0.87842,2.2013396 z m 9.72265,3.6829995 h -4.43442 c -0.0143,0 -0.0212,-0.0212 -0.0212,-0.0635 0,-0.0423 0.007,-0.0635 0.0212,-0.0635 0.26088,0 0.45508,-0.0176 0.58208,-0.0529 0.127,-0.0353 0.21167,-0.10584 0.254,-0.21167 0.0492,-0.10583 0.0741,-0.26106 0.0741,-0.46567 V 7.3660259 c 0,-0.2046 -0.0249,-0.35631 -0.0741,-0.45508 -0.0423,-0.10584 -0.127,-0.1764 -0.254,-0.21167 -0.127,-0.0423 -0.3212,-0.0635 -0.58208,-0.0635 -0.0143,0 -0.0212,-0.0212 -0.0212,-0.0635 0,-0.0423 0.007,-0.0635 0.0212,-0.0635 h 4.2545 c 0.0635,0 0.0952,0.0318 0.0952,0.0953 l 0.0212,1.30175 c 0,0.0212 -0.0212,0.0353 -0.0635,0.0423 -0.0355,0 -0.0529,-0.0106 -0.0529,-0.0318 -0.0212,-0.381 -0.13758,-0.67381 -0.34925,-0.87841 -0.20479,-0.20461 -0.47281,-0.30692 -0.80433,-0.30692 h -0.64559 c -0.23997,0 -0.42333,0.0177 -0.55033,0.0529 -0.12012,0.0353 -0.20479,0.10231 -0.254,0.20108 -0.0423,0.0988 -0.0635,0.24342 -0.0635,0.43392 v 4.8048291 c 0,0.18344 0.0212,0.32456 0.0635,0.42333 0.0492,0.0988 0.13044,0.16582 0.24342,0.20109 0.11985,0.0353 0.29633,0.0529 0.52916,0.0529 h 0.84667 c 0.33867,0 0.62071,-0.11993 0.84667,-0.35983 0.23283,-0.24694 0.38444,-0.57856 0.45508,-0.99483 0,-0.0212 0.0212,-0.0282 0.0635,-0.0212 0.0423,0.007 0.0635,0.0212 0.0635,0.0423 -0.0283,0.18344 -0.0529,0.40569 -0.0741,0.66675 -0.0143,0.26107 -0.0212,0.50448 -0.0212,0.73025 0,0.10584 -0.0566,0.15875 -0.16933,0.15875 z m -0.59267,-2.46591 c 0,-0.31044 -0.0778,-0.53269 -0.23283,-0.6667495 -0.14817,-0.13407 -0.39873,-0.20109 -0.75142,-0.20109 h -1.5875 v -0.22225 h 1.61925 c 0.33867,0 0.57838,-0.0564 0.71967,-0.16933 0.14816,-0.11994 0.22225,-0.31044 0.22225,-0.5715 0,-0.0141 0.0212,-0.0212 0.0635,-0.0212 0.0423,0 0.0635,0.007 0.0635,0.0212 0,0.21167 -0.004,0.37748 -0.0106,0.49742 0,0.11289 0,0.23283 0,0.35983 0,0.16227 0.003,0.3210195 0.0106,0.4762495 0.007,0.15523 0.0106,0.32102 0.0106,0.49742 0,0.0141 -0.0212,0.0212 -0.0635,0.0212 -0.0423,0 -0.0635,-0.007 -0.0635,-0.0212 z m 4.56247,-1.1535895 0.11642,-0.11641 c 0.41619,0 0.77973,0.0776 1.09008,0.23283 0.3175,0.15523 0.56092,0.3669 0.73025,0.6349995 0.17648,0.2681 0.26459,0.57502 0.26459,0.92075 0,0.37394 -0.0918,0.7126 -0.27517,1.016 -0.18336,0.3034 -0.43736,0.54327 -0.762,0.71967 -0.3175,0.16933 -0.67389,0.254 -1.06892,0.254 -0.22569,0 -0.48339,-0.0106 -0.77258,-0.0318 -0.28231,-0.0212 -0.54319,-0.0318 -0.78317,-0.0318 -0.23283,0 -0.45852,0.004 -0.67733,0.0106 -0.21167,0.007 -0.40561,0.0106 -0.58208,0.0106 -0.014,0 -0.0212,-0.0212 -0.0212,-0.0635 0,-0.0423 0.007,-0.0635 0.0212,-0.0635 0.254,0 0.44794,-0.0176 0.58208,-0.0529 0.13414,-0.0353 0.22569,-0.10584 0.27517,-0.21167 0.0495,-0.10583 0.0741,-0.26106 0.0741,-0.46567 V 7.3659659 c 0,-0.2046 -0.0246,-0.35631 -0.0741,-0.45508 -0.0423,-0.10584 -0.13044,-0.1764 -0.26459,-0.21167 -0.127,-0.0423 -0.3175,-0.0635 -0.5715,-0.0635 -0.0212,0 -0.0318,-0.0212 -0.0318,-0.0635 0,-0.0423 0.0106,-0.0635 0.0318,-0.0635 0.16934,0 0.35984,0.007 0.5715,0.0212 0.21167,0.007 0.43392,0.0106 0.66675,0.0106 0.18336,0 0.39503,-0.0106 0.635,-0.0318 0.23998,-0.0212 0.4445,-0.0318 0.61384,-0.0318 0.41619,0 0.75485,0.0635 1.016,0.1905 0.26114,0.11994 0.45164,0.28575 0.5715,0.49742 0.127,0.21166 0.1905,0.44802 0.1905,0.70908 0,0.40217 -0.14817,0.74435 -0.4445,1.0265796 -0.28919,0.28223 -0.66331,0.48332 -1.12184,0.60325 z m -0.4445,-2.8680796 c -0.16219,0 -0.29289,0.0141 -0.39158,0.0423 -0.0987,0.0282 -0.16933,0.0952 -0.21167,0.20109 -0.0423,0.0988 -0.0635,0.2681 -0.0635,0.508 v 2.0743296 l -0.33866,-0.0847 c 0.22569,0.0141 0.41275,0.0247 0.56091,0.0318 0.14817,0 0.23284,0 0.254,0 0.54319,0 0.93134,-0.13758 1.16417,-0.41275 0.23283,-0.2822296 0.34925,-0.6279296 0.34925,-1.0371596 0,-0.24694 -0.0458,-0.46919 -0.13758,-0.66675 -0.0847,-0.20461 -0.22225,-0.36336 -0.41275,-0.47625 -0.1905,-0.11994 -0.44794,-0.17992 -0.77259,-0.17992 z m 0.381,6.3394191 c 0.52917,0 0.91361,-0.13407 1.15359,-0.40217 0.24685,-0.27517 0.37041,-0.65265 0.37041,-1.13242 0,-0.52916 -0.15531,-0.96308 -0.46566,-1.30175 -0.31036,-0.3386595 -0.74428,-0.5079995 -1.30175,-0.5079995 -0.17648,-0.007 -0.35984,-0.007 -0.55034,0 -0.18335,0.007 -0.37041,0.0247 -0.56091,0.0529 l 0.30691,-0.11642 v 2.6987495 c 0,0.16934 0.0246,0.30692 0.0741,0.41275 0.0495,0.10584 0.14816,0.18344 0.29633,0.23284 0.15531,0.0423 0.381,0.0635 0.67733,0.0635 z"
       fill="#ffffff"
       id="path3"
       style="stroke-width:0.264583" />
  </g>
</svg>
